<svg width="30" height="30" viewBox="0 0 30 30" fill="none" xmlns="http://www.w3.org/2000/svg">
<rect width="30" height="30" fill="white"/>
<path d="M8.88522 8.51766C8.81437 7.4704 9.13524 6.43419 9.78551 5.61023C10.4358 4.78627 11.369 4.23337 12.4041 4.05889C13.4391 3.88441 14.5021 4.1008 15.3865 4.66605C16.271 5.23129 16.9138 6.10505 17.1902 7.11766C17.5364 6.9264 17.923 6.81966 18.3183 6.80616C18.7136 6.79266 19.1065 6.87277 19.4649 7.03996C19.8234 7.20715 20.1372 7.45668 20.3809 7.76822C20.6246 8.07977 20.7913 8.44449 20.8672 8.83266C20.8794 8.91838 20.8579 9.00549 20.8074 9.07581C20.7569 9.14613 20.6812 9.19424 20.5961 9.2101C20.511 9.22596 20.423 9.20835 20.3506 9.16095C20.2781 9.11355 20.2268 9.04 20.2072 8.95566C20.1474 8.63656 20.0034 8.33923 19.7902 8.09436C19.577 7.84949 19.3024 7.66595 18.9946 7.56271C18.6868 7.45946 18.357 7.44024 18.0393 7.50703C17.7215 7.57382 17.4274 7.72421 17.1872 7.94266C17.1417 7.98392 17.0858 8.01192 17.0255 8.02363C16.9653 8.03534 16.9029 8.0303 16.8453 8.00907C16.7877 7.98783 16.737 7.95121 16.6987 7.90319C16.6604 7.85516 16.6361 7.79757 16.6282 7.73666C16.5689 7.26337 16.4151 6.80684 16.1758 6.39423C15.9364 5.98162 15.6166 5.62135 15.2352 5.33486C14.8539 5.04837 14.4188 4.84151 13.9558 4.72658C13.4929 4.61166 13.0116 4.59101 12.5405 4.66588C12.0694 4.74075 11.6182 4.9096 11.2137 5.16238C10.8092 5.41517 10.4597 5.74673 10.186 6.13734C9.9122 6.52794 9.7198 6.96962 9.62021 7.4361C9.52061 7.90257 9.51586 8.38431 9.60622 8.85266C9.61579 8.90689 9.61196 8.96264 9.59508 9.01505C9.57819 9.06746 9.54875 9.11496 9.50932 9.1534C9.46989 9.19185 9.42167 9.22007 9.36884 9.23563C9.31602 9.25118 9.26019 9.2536 9.20622 9.24266C8.51766 9.1047 7.80246 9.21699 7.1893 9.55932C6.57614 9.90166 6.10527 10.4516 5.86141 11.1101C5.61754 11.7687 5.61669 12.4926 5.859 13.1517C6.10131 13.8109 6.57087 14.3619 7.18322 14.7057C7.24683 14.7427 7.29662 14.7995 7.325 14.8674C7.35339 14.9353 7.35883 15.0106 7.3405 15.0819C7.32217 15.1532 7.28107 15.2166 7.22344 15.2624C7.16581 15.3082 7.09481 15.3339 7.02122 15.3357C3.45522 13.7217 4.94022 8.18266 8.88522 8.51766ZM22.4542 18.0247H21.4752C21.4034 18.689 21.1214 19.3131 20.6703 19.806C20.2192 20.299 19.6226 20.6352 18.9672 20.7657C18.924 20.7741 18.8796 20.7739 18.8364 20.7651C18.7933 20.7563 18.7523 20.7392 18.7158 20.7146C18.6793 20.6899 18.6481 20.6584 18.6238 20.6217C18.5995 20.585 18.5826 20.5439 18.5742 20.5007C18.5658 20.4575 18.566 20.413 18.5748 20.3699C18.5835 20.3268 18.6007 20.2858 18.6253 20.2493C18.6499 20.2128 18.6815 20.1815 18.7182 20.1572C18.7549 20.1329 18.796 20.1161 18.8392 20.1077C19.1589 20.0447 19.4631 19.9191 19.7341 19.7382C20.0051 19.5573 20.2377 19.3246 20.4184 19.0534C20.5992 18.7823 20.7245 18.4781 20.7873 18.1583C20.85 17.8386 20.8489 17.5096 20.7841 17.1902C20.7192 16.8709 20.5919 16.5675 20.4094 16.2976C20.2268 16.0277 19.9927 15.7965 19.7205 15.6173C19.4483 15.4382 19.1434 15.3146 18.8233 15.2538C18.5032 15.1929 18.1742 15.1959 17.8552 15.2627C17.8018 15.2731 17.7467 15.2706 17.6945 15.2553C17.6423 15.24 17.5945 15.2123 17.5552 15.1747C17.3392 14.9467 17.5552 14.5877 17.5122 14.3217C17.4975 13.57 17.2011 12.8512 16.6817 12.3076C16.1623 11.7641 15.4577 11.4354 14.7075 11.3866C13.9572 11.3378 13.216 11.5725 12.6306 12.0442C12.0451 12.5159 11.6581 13.1902 11.5462 13.9337C11.5373 13.9939 11.5123 14.0507 11.4738 14.0979C11.4353 14.1452 11.3848 14.1812 11.3276 14.2022C11.2704 14.2232 11.2086 14.2283 11.1487 14.2172C11.0888 14.206 11.033 14.1789 10.9872 14.1387C10.7692 13.9453 10.5001 13.8187 10.2122 13.7738C9.92419 13.729 9.6294 13.7678 9.36287 13.8857C9.09633 14.0036 8.86927 14.1955 8.70872 14.4388C8.54816 14.682 8.46087 14.9662 8.45722 15.2577C8.39222 15.6377 8.76522 15.9577 8.66622 16.3087C8.6437 16.3569 8.61015 16.3991 8.56828 16.4319C8.52641 16.4648 8.47741 16.4873 8.42522 16.4977C7.97514 16.5853 7.57382 16.8374 7.29947 17.2048C7.02512 17.5722 6.89741 18.0285 6.94123 18.485C6.98505 18.9414 7.19726 19.3652 7.5365 19.6737C7.87574 19.9822 8.31769 20.1533 8.77622 20.1537H9.78722C9.87303 20.1583 9.95379 20.1957 10.0129 20.2581C10.072 20.3205 10.1049 20.4032 10.1049 20.4892C10.1049 20.5751 10.072 20.6578 10.0129 20.7202C9.95379 20.7826 9.87303 20.82 9.78722 20.8247H8.77122C8.18524 20.817 7.6202 20.6056 7.17309 20.2268C6.72598 19.8479 6.4247 19.3253 6.32096 18.7485C6.21722 18.1717 6.3175 17.5768 6.60458 17.0659C6.89166 16.555 7.34763 16.16 7.89422 15.9487C7.76493 15.5363 7.75994 15.095 7.87987 14.6799C7.9998 14.2647 8.23935 13.8941 8.5686 13.6142C8.89786 13.3343 9.30226 13.1576 9.73131 13.1061C10.1604 13.0546 10.5951 13.1306 10.9812 13.3247C11.1413 12.7796 11.4249 12.2788 11.8102 11.8613C12.1955 11.4438 12.6719 11.1209 13.2024 10.9177C13.7329 10.7144 14.3031 10.6364 14.8687 10.6897C15.4343 10.7429 15.98 10.926 16.4632 11.2247C16.7718 10.5824 17.2922 10.0661 17.9368 9.7626C18.5814 9.45907 19.3109 9.38686 20.0025 9.55812C20.6942 9.72938 21.3057 10.1337 21.7342 10.7029C22.1627 11.2722 22.382 11.9717 22.3552 12.6837C22.7144 12.6629 23.0741 12.715 23.4128 12.8366C23.7514 12.9582 24.062 13.147 24.3259 13.3915C24.5899 13.6361 24.8017 13.9314 24.9487 14.2598C25.0958 14.5882 25.175 14.9429 25.1817 15.3027C25.1884 15.6624 25.1223 16.0198 24.9875 16.3535C24.8528 16.6871 24.652 16.9901 24.3973 17.2442C24.1427 17.4984 23.8393 17.6985 23.5054 17.8326C23.1715 17.9667 22.814 18.0321 22.4542 18.0247ZM22.0442 13.3947C21.9908 13.4052 21.9357 13.4028 21.8834 13.3874C21.8312 13.3721 21.7834 13.3444 21.7442 13.3067C21.5442 13.1067 21.7222 12.7957 21.6912 12.5567C21.6868 11.9958 21.4887 11.4537 21.1306 11.0221C20.7724 10.5906 20.2761 10.296 19.7257 10.1882C19.1753 10.0804 18.6046 10.1662 18.1101 10.4308C17.6157 10.6955 17.2278 11.1229 17.0122 11.6407C17.4082 12.0083 17.7179 12.4589 17.9193 12.9603C18.1207 13.4616 18.2088 14.0013 18.1772 14.5407C18.9851 14.4932 19.7803 14.7586 20.3978 15.2818C21.0152 15.805 21.4075 16.5459 21.4932 17.3507H22.4592C22.7397 17.351 23.017 17.2923 23.2733 17.1785C23.5296 17.0646 23.7591 16.8982 23.9468 16.6899C24.1346 16.4816 24.2765 16.2362 24.3633 15.9695C24.45 15.7028 24.4798 15.4209 24.4505 15.142C24.4213 14.8631 24.3337 14.5935 24.1934 14.3506C24.0532 14.1078 23.8635 13.8971 23.6366 13.7323C23.4097 13.5676 23.1506 13.4523 22.8763 13.3942C22.602 13.336 22.3185 13.3362 22.0442 13.3947ZM19.2152 17.4267L15.7902 25.9137C15.7601 25.9845 15.7066 26.0429 15.6386 26.0791C15.5706 26.1153 15.4923 26.1272 15.4167 26.1127C15.3411 26.0982 15.2727 26.0582 15.2229 25.9995C15.1732 25.9407 15.145 25.8666 15.1432 25.7897L15.1202 20.9817L10.6002 22.1097C10.5405 22.1236 10.4782 22.1211 10.4198 22.1023C10.3614 22.0836 10.3093 22.0493 10.2689 22.0032C10.2285 21.957 10.2015 21.9008 10.1906 21.8405C10.1797 21.7801 10.1855 21.718 10.2072 21.6607L13.6002 13.1217C13.6306 13.0514 13.6839 12.9935 13.7514 12.9575C13.819 12.9214 13.8968 12.9094 13.9721 12.9233C14.0473 12.9373 14.1157 12.9764 14.1658 13.0342C14.216 13.092 14.245 13.1652 14.2482 13.2417L14.3002 18.1057L18.8202 16.9747C18.8804 16.9604 18.9434 16.9627 19.0024 16.9813C19.0614 17 19.1142 17.0343 19.1552 17.0807C19.1962 17.1272 19.2234 17.1841 19.234 17.2452C19.2446 17.3063 19.2381 17.3691 19.2152 17.4267ZM18.3462 17.7867L14.0522 18.8597C14.0032 18.8715 13.9521 18.8721 13.9027 18.8616C13.8533 18.8511 13.807 18.8297 13.767 18.7989C13.727 18.7681 13.6944 18.7287 13.6716 18.6837C13.6488 18.6387 13.6364 18.5891 13.6352 18.5387L13.5932 14.9517L11.0742 21.2997L15.3742 20.2267C15.4008 20.2203 15.4279 20.217 15.4552 20.2167C15.5438 20.2172 15.6287 20.2525 15.6915 20.3149C15.7544 20.3774 15.7902 20.4621 15.7912 20.5507L15.8082 24.0797L18.3462 17.7867Z" fill="black"/>
</svg>
