<svg width="30" height="30" viewBox="0 0 30 30" fill="none" xmlns="http://www.w3.org/2000/svg">
<rect width="30" height="30" fill="white"/>
<path d="M25.7718 14.7825H23.0216L24.7696 13.1178C24.8589 13.0327 24.8589 12.8952 24.7696 12.8102C24.6803 12.7251 24.5359 12.7251 24.4466 12.8102L22.3757 14.7825H20.7376L22.4856 13.1178C22.5749 13.0327 22.5749 12.8952 22.4856 12.8102C22.3963 12.7251 22.2519 12.7251 22.1626 12.8102L20.0917 14.7825H16.0512L18.9083 12.0615H21.8371C21.9632 12.0615 22.0655 11.9642 22.0655 11.8439C22.0655 11.7237 21.9632 11.6264 21.8371 11.6264H19.3651L20.5231 10.5236H23.4522C23.5782 10.5236 23.6806 10.4263 23.6806 10.3061C23.6806 10.1858 23.5782 10.0885 23.4522 10.0885H20.9799L22.9291 8.23218C23.0184 8.14713 23.0184 8.00966 22.9291 7.92461C22.8398 7.83955 22.6955 7.83955 22.6062 7.92461L20.657 9.78095V7.42669C20.657 7.3064 20.5547 7.20917 20.4286 7.20917C20.3025 7.20917 20.2002 7.3064 20.2002 7.42669V10.216L19.042 11.3191V8.9648C19.042 8.84451 18.9396 8.74728 18.8135 8.74728C18.6875 8.74728 18.5851 8.84451 18.5851 8.9648V11.7539L15.7285 14.4749V10.6271L17.7994 8.65483C17.8887 8.56978 17.8887 8.43231 17.7994 8.34725C17.7101 8.2622 17.5658 8.2622 17.4765 8.34725L15.7285 10.012V8.45188L17.7994 6.4796C17.8887 6.39454 17.8887 6.25707 17.7994 6.17202C17.7101 6.08697 17.5658 6.08697 17.4765 6.17202L15.7285 7.83673V5.21752C15.7285 5.09723 15.6262 5 15.5001 5C15.374 5 15.2717 5.09723 15.2717 5.21752V7.83673L13.5237 6.17202C13.4344 6.08697 13.2901 6.08697 13.2008 6.17202C13.1115 6.25707 13.1115 6.39454 13.2008 6.4796L15.2717 8.45188V10.012L13.5237 8.34725C13.4344 8.2622 13.2901 8.2622 13.2008 8.34725C13.1115 8.43231 13.1115 8.56978 13.2008 8.65483L15.2717 10.6271V14.4749L12.4149 11.7541V8.9648C12.4149 8.84451 12.3125 8.74728 12.1865 8.74728C12.0604 8.74728 11.9581 8.84451 11.9581 8.9648V11.3191L10.7998 10.216V7.42669C10.7998 7.3064 10.6975 7.20917 10.5714 7.20917C10.4453 7.20917 10.343 7.3064 10.343 7.42669V9.78095L8.39383 7.92461C8.30453 7.83955 8.16018 7.83955 8.07087 7.92461C7.98156 8.00966 7.98156 8.14713 8.07087 8.23218L10.0201 10.0885H7.54806C7.42198 10.0885 7.31965 10.1858 7.31965 10.3061C7.31965 10.4263 7.42198 10.5236 7.54806 10.5236H10.4769L11.6349 11.6264H9.16309C9.03701 11.6264 8.93469 11.7237 8.93469 11.8439C8.93469 11.9642 9.03701 12.0615 9.16309 12.0615H12.0919L14.9488 14.7825H10.9083L8.83739 12.8102C8.74808 12.7251 8.60373 12.7251 8.51443 12.8102C8.42512 12.8952 8.42512 13.0327 8.51443 13.1178L10.2624 14.7825H8.62429L6.55336 12.8102C6.46406 12.7251 6.31971 12.7251 6.2304 12.8102C6.1411 12.8952 6.1411 13.0327 6.2304 13.1178L7.97837 14.7825H5.2284C5.10232 14.7825 5 14.8797 5 15C5 15.1203 5.10232 15.2175 5.2284 15.2175H7.97837L6.2304 16.882C6.1411 16.9671 6.1411 17.1045 6.2304 17.1896C6.27494 17.232 6.33341 17.2533 6.39188 17.2533C6.45036 17.2533 6.50883 17.232 6.55336 17.1896L8.62429 15.2175H10.2624L8.51443 16.882C8.42512 16.9671 8.42512 17.1045 8.51443 17.1896C8.55897 17.232 8.61744 17.2533 8.67591 17.2533C8.73438 17.2533 8.79285 17.232 8.83739 17.1896L10.9083 15.2175H14.9485L12.0917 17.9383H9.16309C9.03701 17.9383 8.93469 18.0355 8.93469 18.1558C8.93469 18.2761 9.03701 18.3734 9.16309 18.3734H11.6351L10.4769 19.4764H7.54806C7.42198 19.4764 7.31965 19.5737 7.31965 19.6939C7.31965 19.8142 7.42198 19.9115 7.54806 19.9115H10.0198L8.07087 21.7676C7.98156 21.8526 7.98156 21.9901 8.07087 22.0752C8.11541 22.1176 8.17388 22.1389 8.23235 22.1389C8.29082 22.1389 8.34929 22.1176 8.39383 22.0752L10.343 20.2188V22.5731C10.343 22.6934 10.4453 22.7906 10.5714 22.7906C10.6975 22.7906 10.7998 22.6934 10.7998 22.5731V19.784L11.9581 18.6809V21.0354C11.9581 21.1557 12.0604 21.2529 12.1865 21.2529C12.3125 21.2529 12.4149 21.1557 12.4149 21.0354V18.2459L15.2717 15.5251V19.3731L13.2008 21.3452C13.1115 21.4302 13.1115 21.5677 13.2008 21.6527C13.2901 21.7378 13.4344 21.7378 13.5237 21.6527L15.2717 19.9883V21.5483L13.2008 23.5204C13.1115 23.6055 13.1115 23.7429 13.2008 23.828C13.2901 23.913 13.4344 23.913 13.5237 23.828L15.2717 22.1635V24.7825C15.2717 24.9028 15.374 25 15.5001 25C15.6262 25 15.7285 24.9028 15.7285 24.7825V22.1635L17.4765 23.828C17.521 23.8704 17.5795 23.8917 17.638 23.8917C17.6964 23.8917 17.7549 23.8704 17.7994 23.828C17.8887 23.7429 17.8887 23.6055 17.7994 23.5204L15.7285 21.5483V19.9883L17.4765 21.6527C17.521 21.6952 17.5795 21.7165 17.638 21.7165C17.6964 21.7165 17.7549 21.6952 17.7994 21.6527C17.8887 21.5677 17.8887 21.4302 17.7994 21.3452L15.7285 19.3731V15.5251L18.5854 18.2459V21.0352C18.5854 21.1555 18.6877 21.2527 18.8138 21.2527C18.9399 21.2527 19.0422 21.1555 19.0422 21.0352V18.6809L20.2004 19.784V22.5733C20.2004 22.6936 20.3027 22.7908 20.4288 22.7908C20.5549 22.7908 20.6572 22.6936 20.6572 22.5733V20.219L22.6064 22.0754C22.6509 22.1178 22.7094 22.1391 22.7679 22.1391C22.8263 22.1391 22.8848 22.1178 22.9294 22.0754C23.0187 21.9903 23.0187 21.8529 22.9294 21.7678L20.9804 19.9117H23.4524C23.5785 19.9117 23.6808 19.8145 23.6808 19.6942C23.6808 19.5739 23.5785 19.4766 23.4524 19.4766H20.5234L19.3651 18.3736H21.8371C21.9632 18.3736 22.0655 18.2763 22.0655 18.1561C22.0655 18.0358 21.9632 17.9385 21.8371 17.9385H18.9083L16.0515 15.2175H20.0917L22.1626 17.1896C22.2071 17.232 22.2656 17.2533 22.3241 17.2533C22.3826 17.2533 22.441 17.232 22.4856 17.1896C22.5749 17.1045 22.5749 16.9671 22.4856 16.882L20.7376 15.2175H22.3757L24.4466 17.1896C24.4912 17.232 24.5496 17.2533 24.6081 17.2533C24.6666 17.2533 24.7251 17.232 24.7696 17.1896C24.8589 17.1045 24.8589 16.9671 24.7696 16.882L23.0216 15.2175H25.7716C25.8977 15.2175 26 15.1203 26 15C26 14.8797 25.8979 14.7825 25.7718 14.7825Z" fill="black"/>
</svg>
