<svg width="30" height="30" viewBox="0 0 30 30" fill="none" xmlns="http://www.w3.org/2000/svg">
<rect width="30" height="30" fill="white"/>
<g clip-path="url(#clip0_353_91)">
<path d="M15.5 20C12.4624 20 10 17.5376 10 14.5C10 11.4624 12.4624 9 15.5 9C18.5376 9 21 11.4624 21 14.5C21 17.5376 18.5376 20 15.5 20ZM15.5 19C17.9853 19 20 16.9853 20 14.5C20 12.0147 17.9853 10 15.5 10C13.0147 10 11 12.0147 11 14.5C11 16.9853 13.0147 19 15.5 19ZM16 7.5C16 7.77614 15.7761 8 15.5 8C15.2239 8 15 7.77614 15 7.5V4.5C15 4.22386 15.2239 4 15.5 4C15.7761 4 16 4.22386 16 4.5V7.5ZM16 24.5C16 24.7761 15.7761 25 15.5 25C15.2239 25 15 24.7761 15 24.5V21.5C15 21.2239 15.2239 21 15.5 21C15.7761 21 16 21.2239 16 21.5V24.5ZM20.8033 9.90381C20.608 10.0991 20.2915 10.0991 20.0962 9.90381C19.9009 9.70854 19.9009 9.39196 20.0962 9.1967L22.1464 7.14645C22.3417 6.95118 22.6583 6.95118 22.8536 7.14645C23.0488 7.34171 23.0488 7.65829 22.8536 7.85355L20.8033 9.90381ZM8.85355 21.8536C8.65829 22.0488 8.34171 22.0488 8.14645 21.8536C7.95118 21.6583 7.95118 21.3417 8.14645 21.1464L10.1967 19.0962C10.392 18.9009 10.7085 18.9009 10.9038 19.0962C11.0991 19.2915 11.0991 19.608 10.9038 19.8033L8.85355 21.8536ZM22.5 15C22.2239 15 22 14.7761 22 14.5C22 14.2239 22.2239 14 22.5 14H25.5C25.7761 14 26 14.2239 26 14.5C26 14.7761 25.7761 15 25.5 15H22.5ZM5.5 15C5.22386 15 5 14.7761 5 14.5C5 14.2239 5.22386 14 5.5 14H8.5C8.77614 14 9 14.2239 9 14.5C9 14.7761 8.77614 15 8.5 15H5.5ZM20.0962 19.8033C19.9009 19.608 19.9009 19.2915 20.0962 19.0962C20.2915 18.9009 20.608 18.9009 20.8033 19.0962L22.8536 21.1464C23.0488 21.3417 23.0488 21.6583 22.8536 21.8536C22.6583 22.0488 22.3417 22.0488 22.1464 21.8536L20.0962 19.8033ZM8.14645 7.85355C7.95118 7.65829 7.95118 7.34171 8.14645 7.14645C8.34171 6.95118 8.65829 6.95118 8.85355 7.14645L10.9038 9.1967C11.0991 9.39196 11.0991 9.70854 10.9038 9.90381C10.7085 10.0991 10.392 10.0991 10.1967 9.90381L8.14645 7.85355Z" fill="black"/>
</g>
<defs>
<clipPath id="clip0_353_91">
<rect width="24" height="24" fill="white" transform="translate(3 3)"/>
</clipPath>
</defs>
</svg>
