<svg width="30" height="30" viewBox="0 0 30 30" fill="none" xmlns="http://www.w3.org/2000/svg">
<rect width="30" height="30" fill="white"/>
<path d="M11.0347 18.1035C8.42106 18.1035 6.30226 16.0869 6.30226 13.5992C6.30226 11.1115 8.42106 9.09485 11.0347 9.09485C13.6484 9.09485 15.7672 11.1115 15.7672 13.5992C15.7672 16.0869 13.6484 18.1035 11.0347 18.1035ZM11.0347 17.2845C13.1732 17.2845 14.9068 15.6345 14.9068 13.5992C14.9068 11.5638 13.1732 9.91382 11.0347 9.91382C8.89628 9.91382 7.16271 11.5638 7.16271 13.5992C7.16271 15.6345 8.89628 17.2845 11.0347 17.2845ZM11.465 7.86639C11.465 8.09254 11.2724 8.27588 11.0347 8.27588C10.7971 8.27588 10.6045 8.09254 10.6045 7.86639V5.40948C10.6045 5.18333 10.7971 5 11.0347 5C11.2724 5 11.465 5.18333 11.465 5.40948V7.86639ZM11.465 21.7889C11.465 22.015 11.2724 22.1984 11.0347 22.1984C10.7971 22.1984 10.6045 22.015 10.6045 21.7889V19.332C10.6045 19.1058 10.7971 18.9225 11.0347 18.9225C11.2724 18.9225 11.465 19.1058 11.465 19.332V21.7889ZM15.598 9.83504C15.43 9.99495 15.1576 9.99495 14.9895 9.83504C14.8215 9.67512 14.8215 9.41585 14.9895 9.25594L16.7537 7.57684C16.9217 7.41693 17.1941 7.41693 17.3621 7.57684C17.5301 7.73676 17.5301 7.99603 17.3621 8.15594L15.598 9.83504ZM5.3158 19.6215C5.14778 19.7814 4.87538 19.7814 4.70737 19.6215C4.53935 19.4616 4.53935 19.2023 4.70737 19.0424L6.47151 17.3633C6.63952 17.2034 6.91193 17.2034 7.07994 17.3633C7.24795 17.5232 7.24795 17.7825 7.07994 17.9424L5.3158 19.6215ZM17.0579 14.0087C16.8203 14.0087 16.6277 13.8253 16.6277 13.5992C16.6277 13.373 16.8203 13.1897 17.0579 13.1897H19.6393C19.8769 13.1897 20.0695 13.373 20.0695 13.5992C20.0695 13.8253 19.8769 14.0087 19.6393 14.0087H17.0579ZM2.43023 14.0087C2.19262 14.0087 2 13.8253 2 13.5992C2 13.373 2.19262 13.1897 2.43023 13.1897H5.01158C5.24919 13.1897 5.44181 13.373 5.44181 13.5992C5.44181 13.8253 5.24919 14.0087 5.01158 14.0087H2.43023ZM14.9895 17.9424C14.8215 17.7825 14.8215 17.5232 14.9895 17.3633C15.1576 17.2034 15.43 17.2034 15.598 17.3633L17.3621 19.0424C17.5301 19.2023 17.5301 19.4616 17.3621 19.6215C17.1941 19.7814 16.9217 19.7814 16.7537 19.6215L14.9895 17.9424ZM4.70737 8.15594C4.53935 7.99603 4.53935 7.73676 4.70737 7.57684C4.87538 7.41693 5.14778 7.41693 5.3158 7.57684L7.07994 9.25594C7.24795 9.41585 7.24795 9.67512 7.07994 9.83504C6.91193 9.99495 6.63952 9.99495 6.47151 9.83504L4.70737 8.15594Z" fill="black"/>
<ellipse cx="5.04414" cy="7.55318" rx="5.04414" ry="7.55318" transform="matrix(0.736249 0.676711 -0.712213 0.701963 16.5725 8.56905)" fill="white"/>
<path d="M22.7208 25H11.7022C9.66087 25 8 22.9933 8 20.526C8 18.0934 9.61489 16.1075 11.6171 16.0526C12.3303 13.0637 14.5831 11 17.1744 11C19.3226 11 21.2571 12.4073 22.2714 14.6891C22.4323 14.6676 22.5783 14.6572 22.7202 14.6572C25.0799 14.6572 26.9994 16.9765 26.9994 19.8272C27.0006 22.68 25.0805 25 22.7208 25ZM11.7022 16.7466C9.97753 16.7466 8.5747 18.4421 8.5747 20.526C8.5747 22.6098 9.97753 24.3047 11.7022 24.3047H22.7208C24.7639 24.3047 26.4253 22.2959 26.4253 19.8272C26.4253 17.3592 24.7633 15.3518 22.7208 15.3518C22.5496 15.3518 22.3685 15.3698 22.1513 15.4094C22.0283 15.4317 21.9065 15.3546 21.8513 15.2198C20.964 13.0463 19.1715 11.6953 17.1744 11.6953C14.7699 11.6953 12.6895 13.6673 12.1148 16.4909C12.0826 16.6493 11.9568 16.7528 11.8286 16.7549L11.7022 16.7466Z" fill="black"/>
</svg>
