<svg width="30" height="30" viewBox="0 0 30 30" fill="none" xmlns="http://www.w3.org/2000/svg">
<rect width="30" height="30" fill="white"/>
<path d="M21.5947 22H7.67645C5.09794 22 3 19.9933 3 17.526C3 15.0934 5.03987 13.1075 7.56901 13.0526C8.46989 10.0637 11.3155 8 14.5888 8C17.3023 8 19.7458 9.40729 21.027 11.6891C21.2303 11.6676 21.4147 11.6572 21.594 11.6572C24.5747 11.6572 26.9993 13.9765 26.9993 16.8272C27.0007 19.68 24.5754 22 21.5947 22ZM7.67645 13.7466C5.49793 13.7466 3.72593 15.4421 3.72593 17.526C3.72593 19.6098 5.49793 21.3047 7.67645 21.3047H21.5947C24.1754 21.3047 26.2741 19.2959 26.2741 16.8272C26.2741 14.3592 24.1747 12.3518 21.5947 12.3518C21.3784 12.3518 21.1497 12.3698 20.8753 12.4094C20.72 12.4317 20.5661 12.3546 20.4964 12.2198C19.3755 10.0463 17.1114 8.69531 14.5888 8.69531C11.5515 8.69531 8.9236 10.6673 8.19766 13.4909C8.15701 13.6493 7.99803 13.7528 7.83615 13.7549L7.67645 13.7466Z" fill="black"/>
<path d="M21.5947 22C21.3944 22 21.2318 21.8444 21.2318 21.6527C21.2318 21.461 21.3944 21.3054 21.5947 21.3054C24.1754 21.3054 26.2741 19.2965 26.2741 16.8279C26.2741 14.3599 24.1747 12.3525 21.5947 12.3525C20.243 12.3525 18.9574 12.9116 18.0682 13.8862C17.9368 14.0307 17.7074 14.0459 17.5564 13.9195C17.4054 13.7938 17.3901 13.5743 17.5215 13.4298C18.548 12.3038 20.0325 11.6585 21.5947 11.6585C24.5754 11.6585 27 13.9779 27 16.8286C27.0007 19.68 24.5754 22 21.5947 22Z" fill="black"/>
</svg>
