<svg width="30" height="30" viewBox="0 0 30 30" fill="none" xmlns="http://www.w3.org/2000/svg">
<rect width="30" height="30" fill="white"/>
<path d="M25.5034 10.7117C25.5835 10.4005 25.5835 10.1702 25.5835 9.86308C25.5835 7.70121 23.808 6 21.5518 6C20.0209 6 18.7304 6.77181 18.005 7.93154C17.52 7.70121 16.955 7.54362 16.3097 7.54362C14.6143 7.54362 13.2437 8.62657 12.8431 10.0934C12.278 9.93986 11.7128 9.86308 11.0676 9.86308C7.92151 9.86308 5.42067 12.2593 5.42067 15.2738C5.42067 15.3506 5.42067 15.5042 5.42067 15.581C3.96997 16.1992 3 17.5125 3 19.1369C3 21.2988 4.77547 23 7.03171 23H20.7421C22.9983 23 24.7738 21.2988 24.7738 19.1369C24.7738 18.2883 24.4533 17.4357 23.9683 16.8174H24.7738C26.5493 16.8174 28 15.4274 28 13.7262C28.0042 12.2593 26.9541 11.0228 25.5034 10.7117ZM20.7463 22.2282H7.03171C5.25624 22.2282 3.8055 20.8381 3.8055 19.1369C3.8055 17.67 4.8556 16.4336 6.30634 16.1224C6.22621 15.8112 6.22621 15.5809 6.22621 15.2738C6.22621 12.724 8.40233 10.6349 11.0676 10.6349C12.9232 10.6349 14.6144 11.641 15.4241 13.1847C16.0693 12.5664 16.955 12.1785 17.9249 12.1785C19.9408 12.1785 21.556 13.7221 21.556 15.6577C21.556 15.8112 21.556 15.9648 21.556 16.1224C22.9266 16.4295 23.9767 17.666 23.9767 19.1369C23.9683 20.8381 22.5175 22.2282 20.7463 22.2282ZM24.778 16.0456H23.167C22.9266 15.892 22.682 15.7385 22.3615 15.5809C22.3615 13.2615 20.3456 11.4067 17.9249 11.4067C17.0393 11.4067 16.3139 11.637 15.5843 12.025C15.0192 11.3299 14.374 10.7884 13.5685 10.4005C13.889 9.16401 14.9391 8.31543 16.3097 8.31543C17.1153 8.31543 17.9207 8.62657 18.4057 9.16401C18.7262 7.77395 20.0167 6.76777 21.5518 6.76777C23.3273 6.76777 24.778 8.15783 24.778 9.85904C24.778 10.4005 24.6177 10.942 24.3731 11.4027H24.778C26.1486 11.4027 27.1987 12.4088 27.1987 13.7221C27.1987 15.0354 26.1486 16.0456 24.778 16.0456Z" fill="black"/>
</svg>
