<svg width="30" height="30" viewBox="0 0 30 30" fill="none" xmlns="http://www.w3.org/2000/svg">
<g clip-path="url(#clip0_353_85)">
<rect width="30" height="30" fill="white"/>
<path d="M15.2688 18.5202H19.0468" stroke="#231F20" stroke-miterlimit="10" stroke-linecap="round" stroke-linejoin="round"/>
<path d="M22.5191 18.5202H25.1671C26.7317 18.5202 28 17.353 28 15.9128C28 14.6103 26.9629 13.5306 25.6084 13.336C25.6084 11.0588 23.6675 8.95059 21.5166 8.95059M21.5166 8.95059C21.4479 8.95059 21.5845 8.94641 21.5166 8.95059ZM21.5166 8.95059C20.3777 9.01369 19.3684 9.59451 18.6945 10.4741" stroke="#231F20" stroke-miterlimit="10" stroke-linecap="round" stroke-linejoin="round"/>
<path d="M21.5169 8.95128C21.2606 6.17547 18.8693 4 15.9576 4C12.8745 4 10.3756 6.43799 10.3756 9.44564C10.3756 9.73745 10.3993 10.0244 10.4446 10.3026C8.50572 10.5386 7 12.2825 7 14.3987C7 16.6742 8.74343 18.5202 10.8936 18.5202H11.5009" stroke="#231F20" stroke-miterlimit="10" stroke-linecap="round" stroke-linejoin="round"/>
<path d="M14.1266 23.1835L13.7983 24" stroke="#231F20" stroke-miterlimit="10" stroke-linecap="round" stroke-linejoin="round"/>
<path d="M12.3977 21.3239L11.6288 23.2382" stroke="#231F20" stroke-miterlimit="10" stroke-linecap="round" stroke-linejoin="round"/>
<path d="M15.964 18.6091L15.0754 20.8219" stroke="#231F20" stroke-miterlimit="10" stroke-linecap="round" stroke-linejoin="round"/>
<path d="M13.4841 18.6203L13.1423 19.471" stroke="#231F20" stroke-miterlimit="10" stroke-linecap="round" stroke-linejoin="round"/>
<path d="M17.5732 20.7667L16.8043 22.6811" stroke="#231F20" stroke-miterlimit="10" stroke-linecap="round" stroke-linejoin="round"/>
<path d="M19.3018 22.6267L18.7506 23.9976" stroke="#231F20" stroke-miterlimit="10" stroke-linecap="round" stroke-linejoin="round"/>
<path d="M20.9113 18.6203L20.2181 20.3457" stroke="#231F20" stroke-miterlimit="10" stroke-linecap="round" stroke-linejoin="round"/>
<ellipse cx="13.177" cy="18.1029" rx="8.5" ry="11.5" transform="rotate(-46 13.177 18.1029)" fill="white"/>
<path d="M10.2688 22.5202H14.0468" stroke="#231F20" stroke-miterlimit="10" stroke-linecap="round" stroke-linejoin="round"/>
<path d="M17.5191 22.5202H20.1671C21.7317 22.5202 23 21.353 23 19.9128C23 18.6103 21.9629 17.5306 20.6084 17.336C20.6084 15.0588 18.6675 12.9506 16.5166 12.9506M16.5166 12.9506C16.4479 12.9506 16.5845 12.9464 16.5166 12.9506ZM16.5166 12.9506C15.3777 13.0137 14.3684 13.5945 13.6945 14.4741" stroke="#231F20" stroke-miterlimit="10" stroke-linecap="round" stroke-linejoin="round"/>
<path d="M16.5169 12.9513C16.2606 10.1755 13.8693 8 10.9576 8C7.87445 8 5.37562 10.438 5.37562 13.4456C5.37562 13.7374 5.39929 14.0244 5.4446 14.3026C3.50572 14.5386 2 16.2825 2 18.3987C2 20.6742 3.74343 22.5202 5.89365 22.5202H6.50094" stroke="#231F20" stroke-miterlimit="10" stroke-linecap="round" stroke-linejoin="round"/>
<path d="M9.12659 27.1835L8.79826 28" stroke="#231F20" stroke-miterlimit="10" stroke-linecap="round" stroke-linejoin="round"/>
<path d="M7.39768 25.3239L6.62875 27.2382" stroke="#231F20" stroke-miterlimit="10" stroke-linecap="round" stroke-linejoin="round"/>
<path d="M10.964 22.6091L10.0754 24.8219" stroke="#231F20" stroke-miterlimit="10" stroke-linecap="round" stroke-linejoin="round"/>
<path d="M8.48414 22.6203L8.14229 23.471" stroke="#231F20" stroke-miterlimit="10" stroke-linecap="round" stroke-linejoin="round"/>
<path d="M12.5732 24.7667L11.8043 26.6811" stroke="#231F20" stroke-miterlimit="10" stroke-linecap="round" stroke-linejoin="round"/>
<path d="M14.3018 26.6267L13.7506 27.9976" stroke="#231F20" stroke-miterlimit="10" stroke-linecap="round" stroke-linejoin="round"/>
<path d="M15.9113 22.6203L15.2181 24.3457" stroke="#231F20" stroke-miterlimit="10" stroke-linecap="round" stroke-linejoin="round"/>
</g>
<defs>
<clipPath id="clip0_353_85">
<rect width="30" height="30" fill="white"/>
</clipPath>
</defs>
</svg>
