<svg width="30" height="30" viewBox="0 0 30 30" fill="none" xmlns="http://www.w3.org/2000/svg">
<rect width="30" height="30" fill="white"/>
<path d="M11.0347 16.1035C8.42106 16.1035 6.30226 14.0869 6.30226 11.5992C6.30226 9.1115 8.42106 7.09485 11.0347 7.09485C13.6484 7.09485 15.7672 9.1115 15.7672 11.5992C15.7672 14.0869 13.6484 16.1035 11.0347 16.1035ZM11.0347 15.2845C13.1732 15.2845 14.9068 13.6345 14.9068 11.5992C14.9068 9.56381 13.1732 7.91382 11.0347 7.91382C8.89628 7.91382 7.16271 9.56381 7.16271 11.5992C7.16271 13.6345 8.89628 15.2845 11.0347 15.2845ZM11.465 5.86639C11.465 6.09254 11.2724 6.27588 11.0347 6.27588C10.7971 6.27588 10.6045 6.09254 10.6045 5.86639V3.40948C10.6045 3.18333 10.7971 3 11.0347 3C11.2724 3 11.465 3.18333 11.465 3.40948V5.86639ZM11.465 19.7889C11.465 20.015 11.2724 20.1984 11.0347 20.1984C10.7971 20.1984 10.6045 20.015 10.6045 19.7889V17.332C10.6045 17.1058 10.7971 16.9225 11.0347 16.9225C11.2724 16.9225 11.465 17.1058 11.465 17.332V19.7889ZM15.598 7.83504C15.43 7.99495 15.1576 7.99495 14.9895 7.83504C14.8215 7.67512 14.8215 7.41585 14.9895 7.25594L16.7537 5.57684C16.9217 5.41693 17.1941 5.41693 17.3621 5.57684C17.5301 5.73676 17.5301 5.99603 17.3621 6.15594L15.598 7.83504ZM5.3158 17.6215C5.14778 17.7814 4.87538 17.7814 4.70737 17.6215C4.53935 17.4616 4.53935 17.2023 4.70737 17.0424L6.47151 15.3633C6.63952 15.2034 6.91193 15.2034 7.07994 15.3633C7.24795 15.5232 7.24795 15.7825 7.07994 15.9424L5.3158 17.6215ZM17.0579 12.0087C16.8203 12.0087 16.6277 11.8253 16.6277 11.5992C16.6277 11.373 16.8203 11.1897 17.0579 11.1897H19.6393C19.8769 11.1897 20.0695 11.373 20.0695 11.5992C20.0695 11.8253 19.8769 12.0087 19.6393 12.0087H17.0579ZM2.43023 12.0087C2.19262 12.0087 2 11.8253 2 11.5992C2 11.373 2.19262 11.1897 2.43023 11.1897H5.01158C5.24919 11.1897 5.44181 11.373 5.44181 11.5992C5.44181 11.8253 5.24919 12.0087 5.01158 12.0087H2.43023ZM14.9895 15.9424C14.8215 15.7825 14.8215 15.5232 14.9895 15.3633C15.1576 15.2034 15.43 15.2034 15.598 15.3633L17.3621 17.0424C17.5301 17.2023 17.5301 17.4616 17.3621 17.6215C17.1941 17.7814 16.9217 17.7814 16.7537 17.6215L14.9895 15.9424ZM4.70737 6.15594C4.53935 5.99603 4.53935 5.73676 4.70737 5.57684C4.87538 5.41693 5.14778 5.41693 5.3158 5.57684L7.07994 7.25594C7.24795 7.41585 7.24795 7.67512 7.07994 7.83504C6.91193 7.99495 6.63952 7.99495 6.47151 7.83504L4.70737 6.15594Z" fill="black"/>
<ellipse cx="5.04414" cy="7.55318" rx="5.04414" ry="7.55318" transform="matrix(0.736249 0.676711 -0.712213 0.701963 16.759 6)" fill="white"/>
<path d="M15.4813 21.3422H18.8995" stroke="#231F20" stroke-miterlimit="10" stroke-linecap="round" stroke-linejoin="round"/>
<path d="M22.0411 21.3422H24.4369C25.8525 21.3422 27 20.35 27 19.1259C27 18.0187 26.0617 17.101 24.8361 16.9356C24.8361 15 23.0801 13.208 21.134 13.208M21.134 13.208C21.0719 13.208 21.1955 13.2044 21.134 13.208ZM21.134 13.208C20.1037 13.2616 19.1904 13.7553 18.5807 14.503" stroke="#231F20" stroke-miterlimit="10" stroke-linecap="round" stroke-linejoin="round"/>
<path d="M21.1343 13.2086C20.9024 10.8491 18.7389 9 16.1045 9C13.315 9 11.0541 11.0723 11.0541 13.6288C11.0541 13.8768 11.0755 14.1207 11.1165 14.3572C9.36232 14.5578 8 16.0401 8 17.8389C8 19.7731 9.57739 21.3422 11.5228 21.3422H12.0723" stroke="#231F20" stroke-miterlimit="10" stroke-linecap="round" stroke-linejoin="round"/>
<path d="M14.4479 25.306L14.1508 26" stroke="#231F20" stroke-miterlimit="10" stroke-linecap="round" stroke-linejoin="round"/>
<path d="M12.8836 23.7253L12.1879 25.3525" stroke="#231F20" stroke-miterlimit="10" stroke-linecap="round" stroke-linejoin="round"/>
<path d="M16.1103 21.4177L15.3063 23.2986" stroke="#231F20" stroke-miterlimit="10" stroke-linecap="round" stroke-linejoin="round"/>
<path d="M13.8666 21.4272L13.5573 22.1503" stroke="#231F20" stroke-miterlimit="10" stroke-linecap="round" stroke-linejoin="round"/>
<path d="M17.5662 23.2517L16.8705 24.8789" stroke="#231F20" stroke-miterlimit="10" stroke-linecap="round" stroke-linejoin="round"/>
<path d="M19.1302 24.8327L18.6315 25.9979" stroke="#231F20" stroke-miterlimit="10" stroke-linecap="round" stroke-linejoin="round"/>
<path d="M20.5864 21.4272L19.9593 22.8938" stroke="#231F20" stroke-miterlimit="10" stroke-linecap="round" stroke-linejoin="round"/>
</svg>
